<?xml version="1.0" encoding="UTF-8"?>
<svg version="1.1" xmlns="http://www.w3.org/2000/svg" width="1280" height="1156">
<path d="M0 0 C1.13550293 0.18723633 2.27100586 0.37447266 3.44091797 0.56738281 C88.19147714 14.66609672 176.49276457 60.90558948 230.15234375 129.66015625 C231.90702324 131.88225565 233.75610736 133.93151477 235.6875 136 C251.73330932 153.8997076 264.31759482 175.09668535 276 196 C276.41604492 196.73879395 276.83208984 197.47758789 277.26074219 198.23876953 C289.96305822 220.95889151 299.40146856 245.14524672 307 270 C307.28568848 270.92377441 307.57137695 271.84754883 307.86572266 272.79931641 C312.97449157 289.56063599 316.16717485 306.73263316 319 324 C319.27336182 325.61600098 319.27336182 325.61600098 319.55224609 327.26464844 C325.14920431 361.9379438 324.94333608 401.39404728 319 436 C318.77190041 437.37124449 318.54387748 438.74250174 318.31591797 440.11376953 C308.08193716 500.80610648 284.92030454 558.51044893 248 608 C247.59571777 608.54317871 247.19143555 609.08635742 246.77490234 609.64599609 C229.73450569 632.42731116 210.05918258 655.49224387 187.57421875 672.984375 C185.16039198 674.87441235 182.84464649 676.85080254 180.53417969 678.86499023 C149.58493248 705.71133265 111.71123341 726.33250435 73.5 740.6875 C72.38471924 741.1098291 71.26943848 741.5321582 70.12036133 741.96728516 C62.26852072 744.82412652 54.30881256 747.36415157 45.98828125 744.9296875 C40.74113082 742.47620655 36.22403449 738.3713537 34 733 C33.74666691 730.60871029 33.74666691 730.60871029 33.74171448 727.90135193 C33.73488647 726.87154205 33.72805847 725.84173218 33.72102356 724.78071594 C33.72357651 723.65610458 33.72612946 722.53149323 33.72875977 721.37280273 C33.72091965 719.58891144 33.72091965 719.58891144 33.71292114 717.76898193 C33.6999901 714.5056207 33.69562475 711.24236943 33.69407773 707.97898746 C33.68959373 704.54585188 33.67158134 701.11279366 33.65428162 697.67970276 C33.60516404 687.45875652 33.57438953 677.2377643 33.55297852 667.01672363 C33.53634835 659.0957766 33.51319118 651.17497192 33.46995777 643.25411946 C33.45194904 639.84806604 33.43953906 636.4422055 33.44125557 633.03610039 C33.43979336 604.3584369 32.01921025 574.6489774 10.72265625 552.92578125 C9 551 9 551 9 549 C14.44911215 547.99365613 19.89947533 547.00597366 25.3671875 546.10546875 C61.70926456 540.08828673 98.34571236 530.4292698 127 506 C127.79535156 505.32582031 128.59070313 504.65164063 129.41015625 503.95703125 C162.36312704 475.18048025 175.78290466 435.31014767 181 393 C181.1045752 392.15421387 181.20915039 391.30842773 181.31689453 390.43701172 C182.27496324 381.48532499 182.24257664 372.49285008 182.25 363.5 C182.25151062 362.2300972 182.25151062 362.2300972 182.25305176 360.93453979 C182.24320069 348.69965955 181.83879043 336.95216056 179 325 C178.85546387 324.35208496 178.71092773 323.70416992 178.56201172 323.03662109 C173.77458821 301.7291404 164.07430624 282.52368783 150.69921875 265.390625 C150.24289062 264.8025708 149.7865625 264.2145166 149.31640625 263.60864258 C147.87625551 261.79612859 147.87625551 261.79612859 145.54296875 259.52734375 C144 257 144 257 144.4140625 253.36328125 C144.79282437 252.00583048 145.19743018 250.65537647 145.625 249.3125 C146.01582798 247.97607815 146.40381044 246.63882113 146.7890625 245.30078125 C146.99015625 244.60823242 147.19125 243.91568359 147.3984375 243.20214844 C155.03241866 215.25632454 151.11883409 182.52369921 140 156 C105.37063526 149.81618487 67.69475749 174.05949362 40.04858398 191.75415039 C39.03453491 192.37084595 39.03453491 192.37084595 38 193 C37.03163208 193.60726929 37.03163208 193.60726929 36.04370117 194.22680664 C33.31273761 195.26001194 31.85437312 194.79213276 29.0546875 194.0234375 C28.07330811 193.7665918 27.09192871 193.50974609 26.08081055 193.24511719 C25.02289307 192.95797852 23.96497559 192.67083984 22.875 192.375 C13.85871282 190.07140082 4.88997479 188.14347403 -4.3125 186.75 C-5.77357178 186.52449463 -5.77357178 186.52449463 -7.26416016 186.29443359 C-10.50534603 185.82030839 -13.7487996 185.40004919 -17 185 C-17.70179382 184.91279694 -18.40358765 184.82559387 -19.12664795 184.73574829 C-32.93081002 183.06360317 -46.60338243 182.63719737 -60.5 182.6875 C-61.55037445 182.68932281 -62.6007489 182.69114563 -63.68295288 182.69302368 C-85.25171213 182.75585385 -105.94535197 184.60347965 -127.1875 188.4375 C-128.32050537 188.64060791 -129.45351074 188.84371582 -130.62084961 189.05297852 C-135.46727647 189.9662706 -140.10707343 190.93306404 -144.73046875 192.66796875 C-154.14795129 196.0979333 -154.14795129 196.0979333 -159.37695312 194.08496094 C-164.97281391 191.16528688 -170.05458348 187.49991022 -175.20703125 183.87353516 C-179.82059614 180.77873647 -184.68871889 178.22493327 -189.625 175.6875 C-190.5840625 175.19314453 -191.543125 174.69878906 -192.53125 174.18945312 C-205.51019614 167.60299065 -218.87137999 161.64959238 -233 158 C-233.65830811 157.82194824 -234.31661621 157.64389648 -234.99487305 157.46044922 C-240.9126769 155.977896 -246.48186271 155.75900839 -252.5625 155.875 C-253.47580078 155.88402344 -254.38910156 155.89304688 -255.33007812 155.90234375 C-257.55367319 155.92562747 -259.77668677 155.9583229 -262 156 C-267.71325377 171.76858042 -272.40453947 188.12861818 -273 205 C-273.0515625 206.0621875 -273.103125 207.124375 -273.15625 208.21875 C-273.54290791 223.04063648 -271.9451079 238.55247535 -266.57421875 252.44140625 C-265.84259429 255.7013656 -266.41660938 257.09631992 -268 260 C-269.375 261.7109375 -269.375 261.7109375 -271 263.375 C-283.88880675 277.75816116 -292.80766938 295.81790752 -298.4375 314.1875 C-298.66018555 314.90897217 -298.88287109 315.63044434 -299.11230469 316.3737793 C-303.46502353 331.70051386 -304.54592747 346.96793957 -304.4375 362.8125 C-304.43479095 363.74588196 -304.43208191 364.67926392 -304.42929077 365.64093018 C-304.35744662 382.05391052 -303.13906024 397.85847249 -300 414 C-299.81808105 414.95938477 -299.63616211 415.91876953 -299.44873047 416.90722656 C-293.48735658 447.32674835 -280.25723754 474.43580754 -259 497 C-258.40058594 497.66386719 -257.80117188 498.32773437 -257.18359375 499.01171875 C-227.18769753 530.95119356 -178.51930195 542.83475293 -136.66015625 547.640625 C-134 548 -134 548 -131 549 C-131 549.66 -131 550.32 -131 551 C-131.7321875 551.5671875 -132.464375 552.134375 -133.21875 552.71875 C-136.34915262 555.28638361 -138.37918936 558.10688885 -140.5 561.5 C-140.8909082 562.12310059 -141.28181641 562.74620117 -141.68457031 563.38818359 C-146.10701785 570.60269174 -149.34211421 577.74694664 -151.12890625 586.0546875 C-151.42619629 587.39926025 -151.42619629 587.39926025 -151.72949219 588.77099609 C-152.1108809 590.55624023 -152.46058994 592.34862108 -152.77441406 594.14697266 C-154.04087566 600.18439951 -154.04087566 600.18439951 -156.62988281 602.38598633 C-158.72123351 603.49108095 -160.74860048 604.27606637 -163 605 C-163.73935791 605.2460498 -164.47871582 605.49209961 -165.24047852 605.74560547 C-167.52272999 606.45384804 -169.81366979 607.08140919 -172.125 607.6875 C-172.89714844 607.89955078 -173.66929687 608.11160156 -174.46484375 608.33007812 C-195.79221976 614.08883298 -217.35177248 612.18521167 -236.8515625 601.84375 C-248.96594123 594.74947362 -258.35412537 584.66291252 -266 573 C-279.04649714 553.44231205 -293.72873179 537.09027179 -317.46484375 531.41015625 C-325.34153191 530.13580763 -334.85477521 529.98549215 -342 534 C-342.96458451 535.87916171 -342.96458451 535.87916171 -343 538 C-340.16095822 545.38150863 -334.36681282 548.7003342 -328 553 C-306.92089377 567.39548718 -293.75591522 590.19385374 -283.9375 613.375 C-275.99397104 631.9026157 -262.45168388 643.42372238 -244 651 C-230.45201009 655.8467862 -216.74132467 657.35857137 -202.43896484 657.31567383 C-200.29340241 657.31256293 -198.14929468 657.33589947 -196.00390625 657.36132812 C-182.87749127 657.41738122 -169.99211959 655.75208747 -157 654 C-156.93042623 664.06626804 -156.87715124 674.13247867 -156.84456348 684.19893837 C-156.82892135 688.87343476 -156.80770962 693.54776639 -156.77368164 698.22216797 C-156.74103637 702.73497508 -156.72313606 707.24762391 -156.71536827 711.76054001 C-156.70983404 713.4804979 -156.69902697 715.20044734 -156.68280983 716.92033768 C-156.66096661 719.33331126 -156.65803591 721.74563453 -156.65942383 724.15869141 C-156.64324509 725.22037033 -156.64324509 725.22037033 -156.6267395 726.30349731 C-156.66440363 732.3728033 -158.45252368 736.20818532 -162.375 740.75 C-167.64878765 745.27038942 -172.94633228 745.68383249 -179.7109375 745.55078125 C-224.24066329 741.34020418 -276.88290459 702.77747474 -309.22900391 674.5 C-310.59160907 673.34589935 -311.97906553 672.22109272 -313.37646484 671.109375 C-320.35886658 665.54258003 -326.73652171 659.57397127 -333.01660156 653.24414062 C-334.62347307 651.62653713 -336.24078494 650.01993087 -337.859375 648.4140625 C-343.63673897 642.64358415 -349.03536176 636.76252996 -354.10620117 630.35302734 C-355.88527829 628.14254065 -357.74379349 626.06568838 -359.6875 624 C-407.13911606 570.99353206 -435.33411792 497.82977356 -444 428 C-444.08687073 427.32154022 -444.17374146 426.64308044 -444.26324463 425.94406128 C-446.16340189 410.74637098 -446.39883814 395.61444316 -446.375 380.3125 C-446.37478851 379.05742645 -446.37457703 377.80235291 -446.37435913 376.50924683 C-446.34106844 356.67888063 -445.3996182 337.5464182 -442 318 C-441.81276367 316.85772949 -441.62552734 315.71545898 -441.43261719 314.53857422 C-438.75776607 298.3716632 -434.80151642 282.65971747 -430 267 C-429.53787109 265.48792969 -429.53787109 265.48792969 -429.06640625 263.9453125 C-424.38205585 248.82321869 -418.60504896 234.37866408 -412 220 C-411.58991699 219.09620605 -411.17983398 218.19241211 -410.75732422 217.26123047 C-395.40317658 183.52355393 -374.57903809 152.70248234 -350 125 C-349.154375 124.04222656 -348.30875 123.08445312 -347.4375 122.09765625 C-336.62655777 110.0836671 -325.37253895 98.00991676 -312.609375 88.05078125 C-310.18545987 86.14575813 -307.85558475 84.15812196 -305.53198242 82.1328125 C-255.04222722 38.34564767 -189.4950092 10.90215016 -124 0 C-122.8651416 -0.19899902 -121.7302832 -0.39799805 -120.56103516 -0.60302734 C-81.41415263 -7.25184409 -39.08793179 -6.83913292 0 0 Z " fill="#1C2024" transform="translate(674,4)"/>
<path d="M0 0 C1.01920532 0.00270905 2.03841064 0.00541809 3.08850098 0.00820923 C31.92360173 0.12385803 63.27521205 1.80159052 89.0703125 16.02734375 C91.1875 18.4375 91.1875 18.4375 90.96972656 22.41308594 C90.22902878 27.76129363 89.04150487 32.9900483 87.7890625 38.23828125 C87.55343597 39.23707809 87.31780945 40.23587494 87.07504272 41.26493835 C86.57855795 43.36064367 86.07921681 45.45567416 85.57714844 47.55004883 C84.81119402 50.75546534 84.06148674 53.96441015 83.3125 57.17382812 C82.82650448 59.21638013 82.33955848 61.25870626 81.8515625 63.30078125 C81.62957184 64.25809647 81.40758118 65.21541168 81.17886353 66.20173645 C80.96208954 67.09333969 80.74531555 67.98494293 80.52197266 68.90356445 C80.33623688 69.68472122 80.1505011 70.46587799 79.95913696 71.27070618 C79.08267778 73.73184586 77.84261017 75.43183907 76.1875 77.4375 C70.25453682 76.83609485 64.79184418 75.62049185 59.0625 74 C44.8552598 70.15174831 30.84228305 68.96581805 16.1875 68.4375 C15.21296875 68.39496094 14.2384375 68.35242188 13.234375 68.30859375 C-8.52957647 67.79529301 -31.30064328 71.73286903 -48.3671875 86.09765625 C-64.9947277 102.00803418 -71.3727815 126.19634533 -73.8125 148.4375 C-73.92335938 149.448125 -74.03421875 150.45875 -74.1484375 151.5 C-77.38188724 187.85446197 -75.77190616 230.86403752 -52.0859375 260.60546875 C-41.75396273 271.97064099 -26.59423372 277.86969498 -11.44970703 278.78515625 C-7.75331089 278.91842827 -4.06384449 278.9113654 -0.3659668 278.84912109 C1.88473725 278.81234088 4.13378999 278.80810584 6.38476562 278.80859375 C15.28591571 278.7494747 23.23509384 277.81479325 32.1875 276.4375 C32.5175 255.3175 32.8475 234.1975 33.1875 212.4375 C19.59027362 212.55606133 19.59027362 212.55606133 5.9934082 212.70776367 C4.2833716 212.71652904 2.57332873 212.72417286 0.86328125 212.73046875 C-0.4586322 212.7534906 -0.4586322 212.7534906 -1.80725098 212.77697754 C-2.65936157 212.77734009 -3.51147217 212.77770264 -4.3894043 212.77807617 C-5.49193794 212.78806892 -5.49193794 212.78806892 -6.616745 212.79826355 C-9.64642658 212.30048548 -11.42534156 211.36852459 -13.8125 209.4375 C-14.43395996 206.89501953 -14.43395996 206.89501953 -14.42773438 203.8203125 C-14.4416925 202.09337158 -14.4416925 202.09337158 -14.45593262 200.33154297 C-14.43133972 198.4658667 -14.43133972 198.4658667 -14.40625 196.5625 C-14.40629028 195.28648926 -14.40633057 194.01047852 -14.40637207 192.69580078 C-14.40100466 189.9949213 -14.38602488 187.29619494 -14.35449219 184.59570312 C-14.31481274 181.13524793 -14.31044635 177.67587999 -14.31795502 174.21524048 C-14.32176347 170.91423513 -14.30094557 167.61343654 -14.28125 164.3125 C-14.28104858 163.06871582 -14.28084717 161.82493164 -14.28063965 160.54345703 C-14.26472778 159.39216309 -14.24881592 158.24086914 -14.23242188 157.0546875 C-14.22400269 156.04003418 -14.2155835 155.02538086 -14.20690918 153.97998047 C-13.73975045 150.96853447 -13.18595098 150.27565584 -10.8125 148.4375 C-8.70259094 148.05997658 -8.70259094 148.05997658 -6.2199707 148.05654907 C-4.80671005 148.04385986 -4.80671005 148.04385986 -3.36489868 148.03091431 C-1.81722305 148.04002335 -1.81722305 148.04002335 -0.23828125 148.04931641 C1.39374741 148.04143097 1.39374741 148.04143097 3.05874634 148.03338623 C6.66430917 148.0201551 10.26943248 148.02893562 13.875 148.0390625 C16.37459396 148.03704267 18.87418736 148.03413199 21.3737793 148.03036499 C26.61609402 148.02593741 31.85829387 148.03210172 37.10058594 148.04638672 C43.16221749 148.06271359 49.22354634 148.05742514 55.28517056 148.0409075 C61.11524864 148.02565641 66.94521161 148.02726649 72.77529907 148.0360527 C75.25688723 148.03805799 77.73848308 148.035584 80.22006226 148.02861404 C83.6846786 148.02101927 87.14870872 148.03257671 90.61328125 148.04931641 C91.645065 148.04324371 92.67684875 148.03717102 93.73989868 148.03091431 C94.68207245 148.03937378 95.62424622 148.04783325 96.5949707 148.05654907 C97.41423538 148.05768015 98.23350006 148.05881123 99.07759094 148.05997658 C101.1875 148.4375 101.1875 148.4375 102.95030308 149.53945065 C104.81820601 152.4050995 104.56851015 154.78817938 104.57518005 158.1872406 C104.58325836 159.22203264 104.58325836 159.22203264 104.59149987 160.27772957 C104.60583421 162.5947571 104.59866256 164.91121772 104.59155273 167.22827148 C104.59725347 168.88723207 104.60421658 170.54618872 104.61235046 172.20513916 C104.63033011 176.71547314 104.62910447 181.22561308 104.62340808 185.73597217 C104.62032306 189.49854696 104.62640103 193.26108412 104.63244683 197.02365357 C104.64650631 205.89869462 104.64491903 214.77363944 104.63354492 223.64868164 C104.62206271 232.81064758 104.63613784 241.97232084 104.6629414 251.1342482 C104.68507911 258.99504901 104.69174012 266.85575782 104.68586498 274.7165876 C104.68248951 279.41385119 104.68494944 284.11092716 104.70211601 288.8081646 C104.71755237 293.22496215 104.71366668 297.64132529 104.69481087 302.05810547 C104.69111573 303.68027219 104.69426032 305.30247087 104.70469666 306.92460823 C104.71784609 309.13716876 104.70641511 311.3482783 104.68870544 313.56077576 C104.68849616 314.79945624 104.68828688 316.03813673 104.68807125 317.31435299 C104.08839985 321.05580226 103.14117836 322.14544624 100.1875 324.4375 C97.76168698 325.82931374 95.38581537 327.0993959 92.875 328.3125 C91.81212769 328.83130737 91.81212769 328.83130737 90.7277832 329.3605957 C80.68755809 334.19378621 70.58193501 338.23488806 59.8125 341.125 C58.75421997 341.41056763 58.75421997 341.41056763 57.67456055 341.7019043 C55.18892229 342.33497866 52.6936978 342.89119162 50.1875 343.4375 C48.49524292 343.83134888 48.49524292 343.83134888 46.76879883 344.2331543 C34.35370381 346.90799341 21.95345593 346.9282712 9.29760742 346.88354492 C5.6555045 346.87507097 2.01499462 346.90383501 -1.62695312 346.93554688 C-30.86990629 347.02441016 -58.15983787 341.85515072 -83.8125 327.4375 C-84.80507812 326.88449219 -85.79765625 326.33148437 -86.8203125 325.76171875 C-94.37493415 321.25262121 -100.51002937 315.5035143 -106.8125 309.4375 C-107.76576172 308.59638672 -107.76576172 308.59638672 -108.73828125 307.73828125 C-127.10620434 291.03618412 -136.13141987 264.79298634 -142 241.4375 C-142.23799316 240.52105713 -142.47598633 239.60461426 -142.72119141 238.66040039 C-147.51852217 218.62221539 -148.33686165 198.07634742 -148.1875 177.5625 C-148.18317963 176.42929321 -148.17885925 175.29608643 -148.17440796 174.12854004 C-148.09979762 157.4081717 -147.70504632 140.94617901 -144.8125 124.4375 C-144.64089355 123.42526367 -144.46928711 122.41302734 -144.29248047 121.37011719 C-139.69922163 95.07483917 -131.42100451 68.71881526 -114.8125 47.4375 C-114.14976074 46.58164307 -114.14976074 46.58164307 -113.47363281 45.70849609 C-91.83023213 18.09320372 -59.79635623 4.90368717 -25.59851074 0.71731567 C-17.0924705 -0.13699668 -8.53935729 -0.05349097 0 0 Z " fill="#181514" transform="translate(147.8125,809.5625)"/>
<path d="M0 0 C1.27134293 -0.00615326 2.54268585 -0.01230652 3.85255432 -0.01864624 C5.23626429 -0.00485087 6.61996707 0.00968306 8.00366211 0.02490234 C9.42565239 0.02728767 10.84764587 0.0281919 12.26963806 0.02767944 C15.24636633 0.03080434 18.22261189 0.0473463 21.19921875 0.07421875 C25.01483399 0.10822946 28.82991991 0.11584629 32.64566898 0.11432838 C35.58049065 0.11487215 38.5151966 0.12583975 41.44997978 0.14033127 C42.85699017 0.1466949 44.26401367 0.15063715 45.67103767 0.15211868 C47.63620849 0.15645435 49.60133011 0.17554119 51.56640625 0.1953125 C53.24374596 0.20674789 53.24374596 0.20674789 54.95497131 0.21841431 C57.71850586 0.48583984 57.71850586 0.48583984 60.71850586 2.48583984 C61.69160227 5.40512906 61.8420155 7.25134248 61.83876038 10.28837585 C61.84082237 11.77124588 61.84082237 11.77124588 61.84292603 13.28407288 C61.83753311 14.90894875 61.83753311 14.90894875 61.83203125 16.56665039 C61.83217728 17.70825623 61.8323233 18.84986206 61.83247375 20.02606201 C61.83177579 23.80824671 61.82398877 27.59038247 61.81616211 31.37255859 C61.81429752 33.99143955 61.81287381 36.61032085 61.81187439 39.22920227 C61.80876539 45.42336351 61.8005578 51.61750712 61.7905249 57.81166059 C61.77825437 65.55526383 61.77277786 73.29886993 61.76733398 81.04248047 C61.75759215 94.85694733 61.73756029 108.67137571 61.71850586 122.48583984 C92.40850586 122.48583984 123.09850586 122.48583984 154.71850586 122.48583984 C154.67209961 114.01412109 154.62569336 105.54240234 154.57788086 96.81396484 C154.55485096 90.77325639 154.53434477 84.73258083 154.51749039 78.69185638 C154.49530718 70.86201808 154.46712526 63.03234984 154.41674805 55.20263672 C154.37263139 48.34268257 154.34938378 41.48291267 154.33899689 34.62282562 C154.3315925 32.00248058 154.31713396 29.38214587 154.29558563 26.76187897 C154.26664961 23.09835344 154.26254591 19.43559363 154.2644043 15.77197266 C154.25002319 14.68296661 154.23564209 13.59396057 154.2208252 12.47195435 C154.26069201 5.23349832 154.26069201 5.23349832 156.35528564 1.81280518 C159.40539453 0.10014686 161.48621138 -0.02176371 164.98413086 -0.03173828 C166.25224609 -0.04434692 167.52036133 -0.05695557 168.8269043 -0.06994629 C170.20744381 -0.06278646 171.58797825 -0.05458246 172.96850586 -0.04541016 C174.38810492 -0.04810578 175.80770217 -0.05198879 177.22729492 -0.05700684 C180.1998048 -0.06289874 183.17183327 -0.0543497 186.14428711 -0.03564453 C189.95109373 -0.01285416 193.75677235 -0.02597903 197.5635376 -0.04993439 C200.49414542 -0.0644013 203.4244866 -0.05978251 206.35510254 -0.04942322 C207.7585056 -0.04675835 209.161933 -0.05001733 210.56530762 -0.05934143 C212.52782721 -0.06951956 214.49043188 -0.05125056 216.45288086 -0.03173828 C217.56888672 -0.02855591 218.68489258 -0.02537354 219.8347168 -0.02209473 C223.45538072 0.61562888 224.44144661 1.64413659 226.71850586 4.48583984 C227.22105318 7.02872986 227.22105318 7.02872986 227.22466373 9.96162319 C227.23571142 11.08119048 227.24675911 12.20075776 227.25814158 13.35425133 C227.24578043 15.19931356 227.24578043 15.19931356 227.23316956 17.08164978 C227.24011508 18.38827641 227.24706061 19.69490303 227.25421661 21.0411244 C227.27289007 24.67106736 227.26652307 28.30060365 227.25606358 31.93056381 C227.24908477 35.84409092 227.26505945 39.75753338 227.27806091 43.67103577 C227.29972856 51.33909617 227.29956694 59.00700832 227.29143537 66.67508929 C227.28514117 72.90637358 227.28626706 79.13761457 227.29270744 85.36889839 C227.2936091 86.25502841 227.29451075 87.14115844 227.29543973 88.05414088 C227.29729089 89.8541861 227.29915345 91.65423131 227.30102729 93.45427651 C227.31761548 110.34316402 227.308878 127.23196806 227.29204171 144.12085057 C227.27734472 159.57875634 227.29197131 175.03646773 227.32081188 190.49434846 C227.35019096 206.35876457 227.36118245 222.22309093 227.35162967 238.08753306 C227.3506071 239.88134387 227.34961249 241.67515469 227.34864616 243.46896553 C227.34816977 244.3515973 227.34769338 245.23422908 227.34720256 246.14360727 C227.34503641 252.36802448 227.3548532 258.5923569 227.36941719 264.81675529 C227.38691621 272.40149574 227.38685833 279.98598834 227.36406554 287.57071894 C227.35290087 291.44180237 227.34981051 295.31244877 227.36836624 299.18351364 C227.38820932 303.37705308 227.36943672 307.56952192 227.34669495 311.76304626 C227.35853067 312.99085703 227.3703664 314.2186678 227.38256079 315.48368496 C227.28122818 324.63781347 227.28122818 324.63781347 224.36225128 327.74259377 C221.15846382 329.85512317 219.34453897 330.10317664 215.52294922 330.08520508 C214.29495102 330.09128281 213.06695282 330.09736053 211.80174255 330.10362244 C209.82501305 330.07432396 209.82501305 330.07432396 207.80834961 330.04443359 C206.43502756 330.04017977 205.0616983 330.0378545 203.68836975 330.03736877 C200.81583874 330.03121466 197.944091 330.00857051 195.07177734 329.97290039 C191.39415322 329.92758563 187.71723663 329.91287146 184.03935909 329.90916348 C181.2057043 329.90473028 178.37219722 329.88941911 175.53860664 329.87028694 C173.52453083 329.85712108 171.51042485 329.84886655 169.49632263 329.84068298 C167.65905357 329.81670189 167.65905357 329.81670189 165.78466797 329.79223633 C164.16847816 329.77627663 164.16847816 329.77627663 162.51963806 329.75999451 C159.71780502 329.48577125 158.05779849 329.02258765 155.71850586 327.48583984 C154.41269174 324.87421161 154.59557709 322.96991587 154.59825134 320.04428101 C154.59618935 318.31104836 154.59618935 318.31104836 154.59408569 316.5428009 C154.59768097 315.26894028 154.60127625 313.99507965 154.60498047 312.68261719 C154.60526243 311.33258567 154.60510443 309.98255401 154.60453796 308.63252258 C154.60425034 304.96125714 154.61014143 301.29002418 154.61711192 297.61876631 C154.62335127 293.78438957 154.62394972 289.95001214 154.62513733 286.1156311 C154.62824893 278.85187561 154.63646001 271.58813512 154.64648682 264.32438624 C154.65974007 254.51086507 154.66514925 244.69733981 154.67098904 234.88381195 C154.68040001 219.41781001 154.70032007 203.95183972 154.71850586 188.48583984 C124.02850586 188.48583984 93.33850586 188.48583984 61.71850586 188.48583984 C61.77651367 198.24533203 61.83452148 208.00482422 61.89428711 218.06005859 C61.91982846 224.23519539 61.94410447 230.41029401 61.96264648 236.58544922 C61.99232712 246.39149025 62.02723896 256.19731664 62.09570312 266.00317383 C62.14553932 273.14442267 62.17779709 280.28549756 62.18894833 287.42691547 C62.19546685 291.20834404 62.21078567 294.98927498 62.24715614 298.77054405 C62.28111967 302.33044957 62.29155852 305.88965298 62.28404427 309.44970512 C62.28607357 311.37756178 62.31296716 313.30534213 62.34060669 315.23300171 C62.29057414 323.61284938 62.29057414 323.61284938 59.57025146 327.76412964 C56.24863022 329.76952212 54.38678954 330.10337533 50.52294922 330.08520508 C49.29495102 330.09128281 48.06695282 330.09736053 46.80174255 330.10362244 C45.48392288 330.08409012 44.16610321 330.0645578 42.80834961 330.04443359 C41.43502756 330.04017977 40.0616983 330.0378545 38.68836975 330.03736877 C35.81583874 330.03121466 32.944091 330.00857051 30.07177734 329.97290039 C26.39415322 329.92758563 22.71723663 329.91287146 19.03935909 329.90916348 C16.2057043 329.90473028 13.37219722 329.88941911 10.53860664 329.87028694 C8.52453083 329.85712108 6.51042485 329.84886655 4.49632263 329.84068298 C3.27147659 329.82469559 2.04663055 329.80870819 0.78466797 329.79223633 C-0.2927919 329.78159653 -1.37025177 329.77095673 -2.48036194 329.75999451 C-5.28219498 329.48577125 -6.94220151 329.02258765 -9.28149414 327.48583984 C-10.56322835 324.92237142 -10.41043222 323.1093623 -10.41571522 320.23774147 C-10.42017306 319.11805619 -10.42463091 317.99837091 -10.42922384 316.84475577 C-10.42903947 315.60431553 -10.42885511 314.36387529 -10.42866516 313.08584595 C-10.43234185 311.77613905 -10.43601854 310.46643216 -10.43980664 309.11703718 C-10.44984363 305.46937161 -10.45354615 301.82172251 -10.45619595 298.17404509 C-10.4600939 294.24485287 -10.4696725 290.31567375 -10.47840881 286.38648987 C-10.49818626 276.89223191 -10.50824045 267.39797287 -10.5171366 257.90369946 C-10.52151687 253.43627068 -10.5268843 248.96884309 -10.53212547 244.50141525 C-10.54913802 229.65735177 -10.56363366 214.81328904 -10.57087421 199.9692173 C-10.5727842 196.11570866 -10.57470452 192.26220002 -10.57666016 188.40869141 C-10.5771439 187.45088431 -10.57762764 186.49307721 -10.57812604 185.50624566 C-10.58643183 169.97967495 -10.61177789 154.45318115 -10.64424083 138.92664404 C-10.67727416 122.99790505 -10.69531954 107.0692052 -10.69851846 91.14043176 C-10.70068687 82.1920796 -10.70948396 73.24383964 -10.73497963 64.29552078 C-10.75663569 56.6770818 -10.76476224 49.05878225 -10.75501285 41.44031598 C-10.75045344 37.55118578 -10.75244885 33.66234359 -10.77177429 29.77325249 C-10.79252102 25.56189706 -10.78246826 21.35118647 -10.76924133 17.13980103 C-10.78021058 15.90382223 -10.79117983 14.66784343 -10.80248147 13.39441073 C-10.79390058 12.26950995 -10.78531969 11.14460918 -10.77647877 9.9856205 C-10.77745558 9.01310172 -10.77843238 8.04058294 -10.77943879 7.03859389 C-9.59813887 0.98256308 -5.5601178 -0.01416106 0 0 Z " fill="#1B1817" transform="translate(575.281494140625,821.51416015625)"/>
<path d="M0 0 C1.26811523 -0.01260864 2.53623047 -0.02521729 3.84277344 -0.03820801 C5.22331295 -0.03104817 6.60384739 -0.02284418 7.984375 -0.01367188 C9.40397406 -0.0163675 10.82357131 -0.02025051 12.24316406 -0.02526855 C15.21567394 -0.03116045 18.18770241 -0.02261142 21.16015625 -0.00390625 C24.96696287 0.01888413 28.77264149 0.00575925 32.57940674 -0.01819611 C35.51001456 -0.03266301 38.44035574 -0.02804423 41.37097168 -0.01768494 C42.77437474 -0.01502007 44.17780215 -0.01827905 45.58117676 -0.02760315 C47.54369635 -0.03778128 49.50630102 -0.01951228 51.46875 0 C52.58475586 0.00318237 53.70076172 0.00636475 54.85058594 0.00964355 C57.734375 0.51757812 57.734375 0.51757812 60.09185791 1.90765381 C62.6802418 6.02054012 62.30458268 10.02838436 62.28027344 14.79394531 C62.29061111 15.83816147 62.30094879 16.88237762 62.31159973 17.95823669 C62.34110244 21.41046486 62.34252853 24.86210862 62.34375 28.31445312 C62.35872654 30.70771407 62.37545256 33.10096465 62.39385986 35.49420166 C62.4376043 41.79392971 62.45754835 48.09351833 62.47259521 54.39337158 C62.4921406 60.82157663 62.53411353 67.24963053 62.57421875 73.67773438 C62.64959783 86.29096448 62.70060428 98.90417152 62.734375 111.51757812 C63.83372375 111.03206985 64.93307251 110.54656158 66.06573486 110.04634094 C67.52197459 109.40556174 68.97825523 108.76487551 70.43457031 108.12426758 C71.15750275 107.80470345 71.88043518 107.48513931 72.62527466 107.15589142 C77.49894174 105.01495537 82.33085074 103.0719075 87.484375 101.70507812 C88.21841553 101.50769043 88.95245605 101.31030273 89.70874023 101.10693359 C113.39709052 95.12560644 141.93811597 95.47207533 163.453125 108.11523438 C165.9719025 109.82162839 168.35786127 111.6187556 170.734375 113.51757812 C171.49363281 114.10152344 172.25289062 114.68546875 173.03515625 115.28710938 C186.38299137 126.23740589 193.25880954 141.83377898 197.984375 158.01757812 C198.35405396 159.28021484 198.35405396 159.28021484 198.73120117 160.56835938 C201.93791466 172.11385804 203.04833556 183.51624231 203.0703125 195.47070312 C203.0802977 197.41840607 203.0802977 197.41840607 203.09048462 199.40545654 C203.10235925 202.1417574 203.10617643 204.87793308 203.10498047 207.61425781 C203.10481918 210.36192512 203.11852081 213.1089167 203.14599609 215.85644531 C203.47905529 249.7004579 200.81112301 289.82920212 175.734375 315.51757812 C162.33131417 328.40907175 145.14585638 334.56698066 126.6875 334.75585938 C125.91742615 334.76393112 125.14735229 334.77200287 124.35394287 334.78031921 C122.72345181 334.79410366 121.09293257 334.80485084 119.46240234 334.81274414 C117.83177942 334.82415047 116.20119036 334.84441723 114.57080078 334.87426758 C90.10281944 335.32072718 65.27414703 328.83637998 45.734375 313.51757812 C45.57582031 314.42121094 45.41726563 315.32484375 45.25390625 316.25585938 C44.90392578 318.02509766 44.90392578 318.02509766 44.546875 319.83007812 C44.21623047 321.58771484 44.21623047 321.58771484 43.87890625 323.38085938 C42.734375 326.51757812 42.734375 326.51757812 40.77026367 328.18432617 C36.49368983 330.06244195 32.64047976 329.98529204 28.015625 329.98632812 C26.61237976 329.99774841 26.61237976 329.99774841 25.18078613 330.00939941 C23.20730249 330.02018168 21.23376186 330.02306115 19.26025391 330.01855469 C16.2441498 330.01758128 13.2305815 330.05924611 10.21484375 330.10351562 C8.29427613 330.10872215 6.37369968 330.11141083 4.453125 330.11132812 C3.55404419 330.12772339 2.65496338 330.14411865 1.7286377 330.16101074 C0.88426147 330.15170532 0.03988525 330.1423999 -0.83007812 330.1328125 C-1.56778442 330.13486694 -2.30549072 330.13692139 -3.06555176 330.13903809 C-6.49249456 329.17102134 -8.51499175 327.55425263 -10.265625 324.51757812 C-11.03156504 320.28567259 -10.93517271 316.08523144 -10.89381409 311.79478455 C-10.90090847 310.48659793 -10.90800286 309.17841131 -10.91531223 307.83058268 C-10.93425857 304.20086839 -10.92198805 300.57182691 -10.9045893 296.94212949 C-10.89123088 293.02727585 -10.9066468 289.11252166 -10.91841125 285.19767761 C-10.93680318 277.52937649 -10.92826548 269.86132995 -10.91032303 262.19303673 C-10.89630596 255.96224078 -10.8924023 249.73151401 -10.8957653 243.50070381 C-10.89624275 242.61442056 -10.89672019 241.7281373 -10.8972121 240.81499698 C-10.89823841 239.01462755 -10.89929377 237.21425815 -10.90037786 235.41388876 C-10.90894794 219.48966065 -10.89225942 203.56555559 -10.86254883 187.64135742 C-10.83370581 172.18199496 -10.82662978 156.72280973 -10.84204102 141.26342773 C-10.85879306 124.43596652 -10.86284796 107.60858948 -10.84533066 90.78112608 C-10.84348623 88.98762962 -10.8416515 87.19413315 -10.83982658 85.40063667 C-10.83891449 84.51815917 -10.8380024 83.63568168 -10.83706268 82.72646243 C-10.83145144 76.501083 -10.83476987 70.27574458 -10.84137154 64.05036736 C-10.84909417 56.46673643 -10.84239076 48.88328013 -10.8171965 41.29968446 C-10.80467699 37.42878259 -10.79858438 33.55815292 -10.80973816 29.6872406 C-10.82158799 25.49570258 -10.80256909 21.30488337 -10.7802887 17.11338806 C-10.78852946 15.88334657 -10.79677023 14.65330508 -10.80526072 13.38598961 C-10.78868919 11.70663868 -10.78868919 11.70663868 -10.77178288 9.99336147 C-10.77059139 9.02550667 -10.76939991 8.05765187 -10.76817232 7.06046814 C-9.57627153 1.0294488 -5.54553155 0.01581349 0 0 Z M81.109375 158.14257812 C80.45380615 158.28252197 79.7982373 158.42246582 79.12280273 158.56665039 C72.23649552 160.2622483 67.45033805 163.1595966 60.734375 166.51757812 C60.734375 199.84757812 60.734375 233.17757813 60.734375 267.51757812 C73.48056458 273.89067292 83.48890549 276.85848239 97.546875 277.01757812 C98.50102295 277.03602783 99.4551709 277.05447754 100.43823242 277.07348633 C107.89167831 277.00821294 115.05205236 275.67900961 120.85205078 270.69946289 C131.708065 259.53728434 132.85717252 242.18618261 132.9375 227.41601562 C132.94320007 226.57648346 132.94890015 225.73695129 132.95477295 224.87197876 C132.96415418 223.10558301 132.97072927 221.3391703 132.97460938 219.57275391 C132.98427536 216.91992349 133.01534863 214.26788251 133.046875 211.61523438 C133.14887737 195.3129505 131.97548106 177.37688564 120.734375 164.51757812 C113.15500449 157.39070734 103.6682446 155.91749216 93.58203125 156.16992188 C89.33343633 156.55380507 85.27024325 157.22007508 81.109375 158.14257812 Z " fill="#191615" transform="translate(1077.265625,821.482421875)"/>
<path d="M0 0 C0.97585304 -0.00525696 0.97585304 -0.00525696 1.97142029 -0.01062012 C4.12623705 -0.01943723 6.28072666 -0.01358856 8.43554688 -0.00683594 C9.93005435 -0.0081826 11.42456141 -0.01012314 12.91906738 -0.01263428 C16.0530209 -0.0155855 19.18686049 -0.01128801 22.32080078 -0.00195312 C26.34279701 0.0094415 30.36452633 0.00288201 34.38651276 -0.00909805 C37.47310404 -0.01631674 40.5596318 -0.0140287 43.64622498 -0.00884247 C45.12943045 -0.00750599 46.61264166 -0.00915363 48.09584045 -0.01380157 C50.16691419 -0.01886705 52.23755254 -0.01115678 54.30859375 0 C55.48836792 0.00159119 56.66814209 0.00318237 57.88366699 0.00482178 C60.65429688 0.25878906 60.65429688 0.25878906 62.65429688 2.25878906 C62.91042328 4.70185566 62.91042328 4.70185566 62.91931152 7.84065247 C62.92758469 9.02783875 62.93585785 10.21502502 62.94438171 11.43818665 C62.94339981 12.74772812 62.94241791 14.05726959 62.94140625 15.40649414 C62.94742851 16.79454959 62.95435226 18.18260137 62.96211243 19.57064819 C62.97702875 22.56574897 62.98575773 25.56078277 62.98982239 28.55591774 C62.99653487 33.30221333 63.01829353 38.04836649 63.0423584 42.79460144 C63.09139011 52.8867972 63.12359845 62.97902346 63.15429688 73.07128906 C63.18741543 83.92932829 63.22361336 94.78731203 63.2784276 105.64526671 C63.30162554 110.35164744 63.31548008 115.05793078 63.3219223 119.76436293 C63.32791693 122.71280429 63.3420625 125.66116834 63.35826683 128.60956955 C63.36682182 130.60255475 63.36573225 132.59557429 63.36421204 134.58857727 C63.22469389 150.39919788 63.22469389 150.39919788 69.06298828 164.68896484 C74.01766452 169.57674763 80.7466205 170.76474425 87.45678711 170.86523438 C88.36759033 170.85073242 89.27839355 170.83623047 90.21679688 170.82128906 C91.65164429 170.8092041 91.65164429 170.8092041 93.11547852 170.796875 C103.29132911 170.51456679 112.61492681 168.26476935 121.47070312 163.08691406 C124.65429688 161.25878906 124.65429688 161.25878906 126.65429688 161.25878906 C126.65245329 160.44726474 126.6506097 159.63574041 126.64871025 158.79962444 C126.6045776 139.07052642 126.57146292 119.34143688 126.55067253 99.61229992 C126.54035171 90.07151201 126.52627602 80.53075702 126.50341797 70.98999023 C126.48350872 62.67608043 126.4705863 54.36219445 126.46611989 46.04826146 C126.46350832 41.64445599 126.45735333 37.2407187 126.44283676 32.83693504 C126.42929177 28.69444461 126.42506796 24.55205065 126.42808151 20.40954018 C126.42752996 18.88692832 126.42353418 17.36431333 126.41588593 15.84172058 C126.40597276 13.76697532 126.40831449 11.69259693 126.41378784 9.61784363 C126.41194426 8.45546268 126.41010067 7.29308172 126.40820122 6.0954771 C126.65429688 3.25878906 126.65429688 3.25878906 128.65429688 0.25878906 C131.42492676 -0.12216187 131.42492676 -0.12216187 135 -0.12939453 C135.6505687 -0.13465149 136.30113739 -0.13990845 136.97142029 -0.14532471 C139.12637189 -0.1585512 141.28058749 -0.14977803 143.43554688 -0.13964844 C144.93005516 -0.14166843 146.42456248 -0.14457924 147.91906738 -0.14834595 C151.05307387 -0.15277286 154.18682406 -0.14632671 157.32080078 -0.13232422 C161.34291228 -0.1152318 165.3644233 -0.12507106 169.38651276 -0.14304161 C172.47312972 -0.15386973 175.55960376 -0.15043766 178.64622498 -0.14265823 C180.12943085 -0.14065352 181.61264961 -0.14312501 183.09584045 -0.15009689 C185.16710909 -0.15769583 187.23739828 -0.14613095 189.30859375 -0.12939453 C190.48836792 -0.12700775 191.66814209 -0.12462097 192.88366699 -0.12216187 C194.25512878 0.06640884 194.25512878 0.06640884 195.65429688 0.25878906 C198.23860329 4.13524868 197.9323219 7.34271256 197.90826416 11.83752441 C197.91294413 13.16739057 197.91294413 13.16739057 197.91771865 14.52412271 C197.92572127 17.50670854 197.91936618 20.4890922 197.91308594 23.47167969 C197.91579479 25.60515971 197.91935513 27.73863879 197.92370605 29.87211609 C197.93284486 35.67569701 197.92927965 41.47920703 197.92294788 47.28278923 C197.9178956 53.34726024 197.92257718 59.41172505 197.92572021 65.47619629 C197.92936212 75.6617136 197.92455489 85.84720193 197.91503906 96.03271484 C197.9041541 107.82008196 197.90767952 119.60737991 197.91869187 131.39474535 C197.92775837 141.50263071 197.92905315 151.6104952 197.92381454 161.71838331 C197.92069132 167.76086022 197.92029511 173.80330458 197.92688751 179.84577942 C197.93265108 185.52563031 197.92868223 191.20539173 197.917099 196.88523293 C197.91444711 198.9738481 197.91522647 201.06247076 197.91962433 203.15108299 C197.92506037 205.99417602 197.91826931 208.83697932 197.90826416 211.68005371 C197.91495633 212.93038006 197.91495633 212.93038006 197.92178369 214.20596552 C197.8951909 218.0811579 197.8544702 219.95852907 195.65429688 223.25878906 C192.95277949 224.15929486 191.37219151 224.3892124 188.59765625 224.40405273 C187.78671509 224.41043259 186.97577393 224.41681244 186.14025879 224.42338562 C185.26832886 224.42449844 184.39639893 224.42561127 183.49804688 224.42675781 C182.5993689 224.43008621 181.70069092 224.43341461 180.77478027 224.43684387 C178.87508659 224.44190546 176.97538402 224.44425243 175.07568359 224.4440918 C172.1655419 224.4462806 169.25577786 224.46445072 166.34570312 224.48339844 C164.50065234 224.48633202 162.65559975 224.48831705 160.81054688 224.48925781 C159.50265198 224.50003609 159.50265198 224.50003609 158.16833496 224.5110321 C156.95192322 224.50641716 156.95192322 224.50641716 155.7109375 224.50170898 C154.99828735 224.503134 154.28563721 224.50455902 153.5513916 224.50602722 C151.65429688 224.25878906 151.65429688 224.25878906 148.65429688 222.25878906 C147.92382812 220.23535156 147.92382812 220.23535156 147.46679688 217.88378906 C147.30824219 217.11292969 147.1496875 216.34207031 146.98632812 215.54785156 C146.65429688 213.25878906 146.65429688 213.25878906 146.65429688 209.25878906 C145.56117188 209.88785156 144.46804688 210.51691406 143.34179688 211.16503906 C134.18924103 216.28315874 125.06039407 220.4690898 115.09179688 223.75878906 C114.10630859 224.08427734 113.12082031 224.40976563 112.10546875 224.74511719 C102.80145436 227.70405762 93.90293328 229.56787476 84.12304688 229.59472656 C82.80995544 229.60471176 82.80995544 229.60471176 81.47033691 229.61489868 C79.62835768 229.62495083 77.78634257 229.62971803 75.94433594 229.62939453 C73.18815783 229.63373573 70.43362705 229.6700465 67.67773438 229.70800781 C45.90490622 229.84837766 25.01905867 225.65211176 8.98632812 209.88378906 C-5.62161336 193.44067905 -8.83024583 172.5113466 -8.71801758 151.34936523 C-8.7204526 149.71494822 -8.72417876 148.0805327 -8.7290802 146.44612122 C-8.738386 142.05850374 -8.72915707 137.67111332 -8.71574807 133.28351378 C-8.70434355 128.67739738 -8.70854734 124.07129067 -8.710495 119.46516418 C-8.71137399 111.74814178 -8.70037093 104.0312079 -8.68188477 96.31420898 C-8.66062546 87.38833062 -8.65723023 78.46258089 -8.66344672 69.53668231 C-8.66913163 60.93333053 -8.66351135 52.33002408 -8.65227318 43.72667885 C-8.64762552 40.06920853 -8.64675392 36.41176591 -8.64885902 32.75429344 C-8.65073667 28.46055609 -8.6426788 24.16695061 -8.62679863 19.87324333 C-8.62254371 18.29538264 -8.62171329 16.71750861 -8.62448883 15.13964462 C-8.62769326 12.99307095 -8.61867416 10.84689582 -8.60639954 8.70036316 C-8.60434667 7.49754794 -8.6022938 6.29473272 -8.60017872 5.05546856 C-8.08855757 -0.56723323 -4.81944271 0.00650008 0 0 Z " fill="#171413" transform="translate(839.345703125,926.7412109375)"/>
<path d="M0 0 C2.822052 -0.36076355 2.822052 -0.36076355 6.46923828 -0.34057617 C7.46454056 -0.34123329 7.46454056 -0.34123329 8.47994995 -0.34190369 C10.677035 -0.33981068 12.87336049 -0.31645699 15.0703125 -0.29296875 C16.5920266 -0.28737458 18.1137461 -0.28310364 19.63546753 -0.28010559 C23.64364499 -0.26864261 27.65149712 -0.2391633 31.6595459 -0.20599365 C35.74824624 -0.17532384 39.83699907 -0.16160689 43.92578125 -0.14648438 C51.95067025 -0.11429467 59.97529468 -0.06308116 68 0 C69.35144654 2.70289308 69.11975165 4.80069806 69.11352539 7.82666016 C69.11341209 9.65833237 69.11341209 9.65833237 69.11329651 11.52700806 C69.10818952 12.86435995 69.10297352 14.20171143 69.09765625 15.5390625 C69.0957914 16.90383859 69.09436781 18.26861534 69.09336853 19.63339233 C69.08954863 23.22715093 69.07972283 26.82086917 69.06866455 30.41461182 C69.05843911 34.08108982 69.05386848 37.74757435 69.04882812 41.4140625 C69.0381001 48.60939341 69.02102999 55.80469105 69 63 C69.58215775 62.99333817 70.16431549 62.98667633 70.76411438 62.97981262 C76.81461066 62.9135231 82.86500405 62.86822607 88.91577148 62.83520508 C91.17492868 62.82010398 93.43405649 62.79962158 95.69311523 62.77368164 C98.93741093 62.73735692 102.18131956 62.72028692 105.42578125 62.70703125 C106.43836502 62.69154739 107.45094879 62.67606354 108.49421692 62.66011047 C109.90534004 62.65977058 109.90534004 62.65977058 111.3449707 62.65942383 C112.58740288 62.64943108 112.58740288 62.64943108 113.85493469 62.63923645 C116 63 116 63 117.76667786 64.19316101 C119.43745969 66.64088626 119.38071202 68.29617476 119.38818359 71.25 C119.39764008 72.32121094 119.40709656 73.39242187 119.4168396 74.49609375 C119.41076691 75.65238281 119.40469421 76.80867187 119.3984375 78 C119.40274277 79.78083984 119.40274277 79.78083984 119.40713501 81.59765625 C119.40917777 84.10937985 119.40363322 86.62111928 119.39111328 89.1328125 C119.3750636 92.98473572 119.39095588 96.83560955 119.41015625 100.6875 C119.40817386 103.12500232 119.40433027 105.56250399 119.3984375 108 C119.40451019 109.15628906 119.41058289 110.31257812 119.4168396 111.50390625 C119.40265488 113.11072266 119.40265488 113.11072266 119.38818359 114.75 C119.38579681 115.69359375 119.38341003 116.6371875 119.38095093 117.609375 C118.91827897 120.51283337 118.29578079 121.2177217 116 123 C113.85493469 123.36076355 113.85493469 123.36076355 111.3449707 123.34057617 C110.40422195 123.34034958 109.46347321 123.34012299 108.49421692 123.33988953 C107.48163315 123.32440567 106.46904938 123.30892181 105.42578125 123.29296875 C104.38681198 123.28872391 103.34784271 123.28447906 102.27738953 123.28010559 C98.95549724 123.26329849 95.63420925 123.22564196 92.3125 123.1875 C90.06185771 123.17245582 87.81120593 123.15876695 85.56054688 123.14648438 C80.04015803 123.11338836 74.52012218 123.06316869 69 123 C69.0612568 135.26571415 69.13839634 147.53121633 69.23571491 159.79670048 C69.28040879 165.49230085 69.31966728 171.18782985 69.34643555 176.88354492 C69.37247803 182.38203451 69.41288762 187.88024932 69.46318626 193.37856865 C69.47984849 195.4744366 69.49136677 197.57035206 69.49761391 199.66627693 C69.5072618 202.60601615 69.53532999 205.54505338 69.56762695 208.48461914 C69.56619186 209.34777237 69.56475677 210.2109256 69.5632782 211.10023499 C69.66549517 217.69532357 70.99189762 222.30161243 75 227.6875 C83.63656918 234.34485541 92.99662928 234.46435852 103.5 234.0625 C105.9891533 233.97723759 108.47879647 233.90497317 110.96875 233.84765625 C112.05607422 233.80648682 113.14339844 233.76531738 114.26367188 233.72290039 C117 234 117 234 118.64675903 235.22361755 C120.3931526 237.51608648 120.38001412 238.8343189 120.38818359 241.69921875 C120.39764008 242.65030518 120.40709656 243.6013916 120.4168396 244.58129883 C120.40773056 246.11886841 120.40773056 246.11886841 120.3984375 247.6875 C120.40274277 249.26857544 120.40274277 249.26857544 120.40713501 250.8815918 C120.40917713 253.11084531 120.40363698 255.34011667 120.39111328 257.56933594 C120.37506231 260.98673468 120.39095759 264.40295065 120.41015625 267.8203125 C120.40817385 269.98437762 120.40433023 272.148442 120.3984375 274.3125 C120.40754654 275.85006958 120.40754654 275.85006958 120.4168396 277.41870117 C120.40738312 278.3697876 120.39792664 279.32087402 120.38818359 280.30078125 C120.38579681 281.13778564 120.38341003 281.97479004 120.38095093 282.8371582 C119.91321433 285.49272405 119.09295739 286.35383824 117 288 C93.63713959 297.60861081 59.00314413 295.99428651 36.0234375 286.43359375 C21.72639677 279.65450596 10.37977589 269.28493787 4.59765625 254.38671875 C-2.25642814 235.13326117 -2.15081218 215.94317546 -2.09765625 195.75390625 C-2.09578681 193.64542169 -2.0943654 191.53693669 -2.09336853 189.42845154 C-2.08958474 183.92950196 -2.07979073 178.43057959 -2.06866455 172.93164062 C-2.05836053 167.30013395 -2.05385181 161.6686228 -2.04882812 156.03710938 C-2.03816397 145.02472775 -2.02113845 134.01236616 -2 123 C-2.98395752 123.01571045 -3.96791504 123.0314209 -4.98168945 123.04760742 C-8.63248508 123.10190978 -12.28324501 123.13635085 -15.93432617 123.16479492 C-17.51446536 123.17988094 -19.09456269 123.2003525 -20.67456055 123.22631836 C-22.94590585 123.26271126 -25.21669759 123.27972762 -27.48828125 123.29296875 C-28.54780754 123.31619453 -28.54780754 123.31619453 -29.6287384 123.33988953 C-32.47644047 123.34086653 -34.5114346 123.31333919 -36.94522095 121.75244141 C-38.25754651 119.57210454 -38.38026554 118.20896259 -38.38818359 115.66796875 C-38.39764008 114.79696533 -38.40709656 113.92596191 -38.4168396 113.02856445 C-38.41076691 112.09101318 -38.40469421 111.15346191 -38.3984375 110.1875 C-38.40130768 109.22223389 -38.40417786 108.25696777 -38.40713501 107.26245117 C-38.40917661 105.22151096 -38.40364007 103.18055123 -38.39111328 101.13964844 C-38.3750612 98.0119256 -38.39095895 94.88549504 -38.41015625 91.7578125 C-38.40817384 89.77603881 -38.4043302 87.79426592 -38.3984375 85.8125 C-38.40451019 84.87494873 -38.41058289 83.93739746 -38.4168396 82.97143555 C-38.40738312 82.10043213 -38.39792664 81.22942871 -38.38818359 80.33203125 C-38.38579681 79.56608643 -38.38341003 78.8001416 -38.38095093 78.01098633 C-37.89330378 75.43676567 -37.0555529 74.58565785 -35 73 C-32.5521037 72.19728254 -30.20619601 71.53942141 -27.70703125 70.95703125 C-27.00100266 70.78370773 -26.29497406 70.61038422 -25.56755066 70.43180847 C-23.31816192 69.88202773 -21.06553797 69.34710696 -18.8125 68.8125 C-17.28426832 68.44173025 -15.75627018 68.06999649 -14.22851562 67.69726562 C-10.48829221 66.78698028 -6.74509919 65.89000287 -3 65 C-2.99191315 64.22992111 -2.98382629 63.45984222 -2.97549438 62.66642761 C-2.89758096 55.41215257 -2.8103004 48.15807961 -2.71247292 40.90404797 C-2.66250882 37.17459527 -2.61617897 33.44517092 -2.578125 29.71557617 C-2.54127335 26.11687631 -2.49491407 22.51841349 -2.44193649 18.91991615 C-2.42339183 17.54643216 -2.4082841 16.17289735 -2.39665604 14.79933739 C-2.37979563 12.87678472 -2.34962546 10.95436266 -2.31884766 9.03198242 C-2.30552399 7.93722092 -2.29220032 6.84245941 -2.2784729 5.71452332 C-2 3 -2 3 0 0 Z " fill="#191615" transform="translate(417,863)"/>
<path d="M0 0 C1.27134293 -0.00945648 2.54268585 -0.01891296 3.85255432 -0.02865601 C5.2362601 -0.02328672 6.61996302 -0.01713388 8.00366211 -0.01025391 C9.42565561 -0.01227542 10.8476481 -0.0151875 12.26963806 -0.01895142 C15.24626561 -0.02336976 18.22262269 -0.01695884 21.19921875 -0.00292969 C25.01492064 0.01417789 28.82999019 0.00430859 32.64566898 -0.01364708 C35.58048777 -0.02448509 38.51515649 -0.02103886 41.44997978 -0.0132637 C42.85699984 -0.01126253 44.26403353 -0.01371809 45.67103767 -0.02070236 C47.63615789 -0.0283179 49.60132591 -0.01465296 51.56640625 0 C52.68463272 0.00238678 53.80285919 0.00477356 54.95497131 0.00723267 C58.12614922 0.44437689 58.78108693 0.93517111 60.71850586 3.38818359 C61.01349882 6.31600408 61.12299149 9.03119457 61.09945679 11.96018982 C61.10413676 12.84606169 61.10881673 13.73193357 61.11363852 14.64465004 C61.12564285 17.62498555 61.11611004 20.60486583 61.10668945 23.58520508 C61.11075277 25.7170641 61.11609329 27.84892102 61.12261963 29.98077393 C61.13632841 35.78031892 61.13097965 41.57970431 61.12148237 47.3792522 C61.11390323 53.4405885 61.12092661 59.50191086 61.12564087 65.56324768 C61.13110393 75.74458273 61.12389279 85.92585257 61.10961914 96.10717773 C61.09329599 107.88660201 61.09857655 119.66587049 61.11509836 131.44529098 C61.12870275 141.54810403 61.13063787 151.65087011 61.12278235 161.75368935 C61.11809952 167.79230018 61.11749766 173.83083774 61.12739182 179.86944389 C61.13604379 185.54687686 61.13007185 191.2241086 61.11270905 196.90151978 C61.10873456 198.98810046 61.10989461 201.07469802 61.11649704 203.16127205 C61.12466467 206.004143 61.11444877 208.84636443 61.09945679 211.68919373 C61.10614895 212.51983178 61.11284112 213.35046984 61.11973608 214.20627874 C61.08574374 217.51725055 60.951555 219.95489912 59.36741734 222.90012455 C56.87071302 225.15327366 54.88389624 224.89632044 51.56640625 224.90576172 C49.6641201 224.92467468 49.6641201 224.92467468 47.72340393 224.94396973 C46.33765102 224.93680935 44.95190317 224.92860522 43.56616211 224.91943359 C42.14513381 224.92212839 40.72410731 224.9260107 39.30308533 224.93103027 C36.32459968 224.93692799 33.34659391 224.92835567 30.36816406 224.90966797 C26.553482 224.886898 22.73992683 224.89998584 18.92528629 224.92395782 C15.9903874 224.93842672 13.05575471 224.93380468 10.1208477 224.92344666 C8.71465356 224.92078126 7.30843513 224.92404263 5.90226936 224.93336487 C3.93485106 224.94354394 1.96734789 224.92527304 0 224.90576172 C-1.11902206 224.90257935 -2.23804413 224.89939697 -3.39097595 224.89611816 C-7.11055067 224.24249813 -8.04421217 223.42419195 -10.28149414 220.38818359 C-10.6742109 217.36670364 -10.82188254 214.7103447 -10.78942871 211.68919373 C-10.79566867 210.80176186 -10.80190864 209.91433 -10.80833769 209.00000626 C-10.8243185 206.02032473 -10.81164354 203.04145547 -10.79907227 200.06176758 C-10.80449108 197.92813641 -10.81161237 195.79450898 -10.8203125 193.66088867 C-10.83857622 187.86142929 -10.83146593 182.06225395 -10.81879616 176.26278949 C-10.80868564 170.20098768 -10.81805629 164.13921057 -10.82434082 158.07740784 C-10.83162234 147.89783348 -10.82201564 137.71837512 -10.80297852 127.53881836 C-10.78120306 115.75874397 -10.78826414 103.9789464 -10.81028414 92.19887871 C-10.82841674 82.09520131 -10.83100711 71.99160741 -10.82052946 61.88791901 C-10.81428352 55.84877581 -10.81348925 49.80976288 -10.82667542 43.77062798 C-10.83820232 38.09476845 -10.83026593 32.41926706 -10.80709839 26.74344635 C-10.80179464 24.65644743 -10.80335334 22.56941854 -10.81214905 20.48243141 C-10.82302225 17.6412728 -10.80944093 14.80127381 -10.78942871 11.96018982 C-10.7983516 11.12732104 -10.80727448 10.29445227 -10.81646776 9.43634504 C-10.74024038 3.88679311 -10.74024038 3.88679311 -8.43040562 1.37624264 C-5.51925823 0.03771123 -3.20298059 0.00683169 0 0 Z " fill="#171413" transform="translate(296.281494140625,925.61181640625)"/>
<path d="M0 0 C8.87635688 7.50769707 14.51186116 16.26961962 15.60546875 28 C15.95341318 39.9955963 13.64493608 49.74270615 5.890625 59.27734375 C-0.84450023 66.36193303 -9.96434544 71.48489458 -19.796875 72.2578125 C-31.30064044 72.50395163 -40.81840977 70.59983174 -49.734375 62.9921875 C-58.1496561 54.8196549 -63.06490614 45.3786533 -63.79296875 33.54296875 C-63.66746245 21.96053037 -59.4462896 11.54608568 -51.515625 3.08203125 C-37.00408257 -10.33567632 -16.11091 -11.53704995 0 0 Z " fill="#1A1716" transform="translate(345.765625,836.98046875)"/>
<path d="M0 0 C0.66 0 1.32 0 2 0 C1.6757435 0.52714725 1.35148701 1.05429451 1.01740456 1.59741592 C-0.28421375 4.67116608 -0.26247283 7.10266376 -0.2784729 10.44134521 C-0.2842653 11.08588063 -0.2900577 11.73041605 -0.29602563 12.39448285 C-0.31301573 14.55177641 -0.31590121 16.70885591 -0.31884766 18.86621094 C-0.32814653 20.41358463 -0.33831515 21.96095331 -0.34928894 23.50831604 C-0.37660762 27.7083478 -0.39174388 31.90834598 -0.40471697 36.10844326 C-0.42033933 40.49805493 -0.4471324 44.88759796 -0.4727478 49.27716064 C-0.51955144 57.58912916 -0.55628788 65.90111056 -0.58942068 74.21314359 C-0.62763086 83.6762184 -0.67704391 93.1392243 -0.72740483 102.60224104 C-0.83074826 122.06811027 -0.92000083 141.53402155 -1 161 C-1.33 161 -1.66 161 -2 161 C-2.04668192 140.45118146 -2.08197014 119.90237163 -2.10362434 99.35351086 C-2.11394516 89.81272295 -2.12802086 80.27196796 -2.15087891 70.73120117 C-2.17078815 62.41729136 -2.18371057 54.10340538 -2.18817699 45.7894724 C-2.19078856 41.38566693 -2.19694355 36.98192964 -2.21146011 32.57814598 C-2.22500511 28.43565555 -2.22922891 24.29326159 -2.22621536 20.15075111 C-2.22676691 18.62813926 -2.2307627 17.10552427 -2.23841095 15.58293152 C-2.24832412 13.50818626 -2.24598238 11.43380786 -2.24050903 9.35905457 C-2.24327441 7.61548314 -2.24327441 7.61548314 -2.24609566 5.83668804 C-2 3 -2 3 0 0 Z " fill="#807E7E" transform="translate(968,927)"/>
<path d="M0 0 C0.66 0.33 1.32 0.66 2 1 C-3.28 6.28 -8.56 11.56 -14 17 C-14.66 16.67 -15.32 16.34 -16 16 C-10.96679794 10.22494276 -5.96260189 4.82082706 0 0 Z " fill="#565453" transform="translate(52,837)"/>
<path d="M0 0 C2.97 0.33 5.94 0.66 9 1 C9 1.66 9 2.32 9 3 C7.02 3.99 7.02 3.99 5 5 C5 3.68 5 2.36 5 1 C3.35 1 1.7 1 0 1 C0 0.67 0 0.34 0 0 Z " fill="#848688" transform="translate(534,552)"/>
</svg>
